<?xml version="1.0" encoding="UTF-8" standalone="no"?>
<svg
   xmlns:dc="http://purl.org/dc/elements/1.1/"
   xmlns:cc="http://creativecommons.org/ns#"
   xmlns:rdf="http://www.w3.org/1999/02/22-rdf-syntax-ns#"
   xmlns:svg="http://www.w3.org/2000/svg"
   xmlns="http://www.w3.org/2000/svg"
   version="1.1"
   id="svg2"
   viewBox="0 0 765 990"
   height="11in"
   width="8.5in">
  <defs
     id="defs4">
    <clipPath
       clipPathUnits="userSpaceOnUse"
       id="clipPath4321">
      <path
         d="M 0,400 400,400 400,0 0,0 0,400 Z"
         id="path4323" />
    </clipPath>
  </defs>
  <metadata
     id="metadata7">
    <rdf:RDF>
      <cc:Work
         rdf:about="">
        <dc:format>image/svg+xml</dc:format>
        <dc:type
           rdf:resource="http://purl.org/dc/dcmitype/StillImage" />
        <dc:title></dc:title>
      </cc:Work>
    </rdf:RDF>
  </metadata>
  <g
     transform="translate(0,-540)"
     id="layer2">
    <rect
       y="540"
       x="0.0085714282"
       height="990"
       width="764.98285"
       id="rect4509"
       style="fill:#276a9f;fill-opacity:1" />
    <path
       id="path4315"
       style="fill:#276a9f;fill-opacity:1;fill-rule:nonzero;stroke:none"
       d="m 588.58319,1523.365 175.20597,0 0,-181.0905 -175.20597,0 0,181.0905 z" />
    <g
       transform="matrix(0.196608,0,0,-0.196608,668.39772,1512.7239)"
       id="g4319"
       clip-path="url(#clipPath4321)">
      <path
         d="m -7.146,-8.313 419.625,0 0,410.959 -419.625,0 0,-410.959 z m 420.667,-1.041 -421.708,0 0,413.041 421.708,0 0,-413.041 z"
         style="fill:#ffffff;fill-opacity:1;fill-rule:nonzero;stroke:none"
         id="path4325" />
      <g
         id="g4327"
         transform="translate(200.001,381.9097)">
        <path
           d="m 0,0 c -77.547,0 -140.636,-63.087 -140.636,-140.632 0,-77.548 63.089,-140.637 140.636,-140.637 77.546,0 140.634,63.089 140.634,140.637 C 140.634,-63.087 77.546,0 0,0 m 0,-294.052 c -84.595,0 -153.418,68.824 -153.418,153.42 0,84.593 68.823,153.414 153.418,153.414 84.594,0 153.417,-68.821 153.417,-153.414 0,-84.596 -68.823,-153.42 -153.417,-153.42"
           style="fill:#ffffff;fill-opacity:1;fill-rule:nonzero;stroke:none"
           id="path4329" />
      </g>
      <g
         id="g4331"
         transform="translate(245.7705,284.6748)">
        <path
           d="m 0,0 -28.978,0 -22.299,22.297 0,79.329 12.782,0 0,-74.034 14.812,-14.81 L 0,12.782 0,0 Z"
           style="fill:#ffffff;fill-opacity:1;fill-rule:nonzero;stroke:none"
           id="path4333" />
      </g>
      <g
         id="g4335"
         transform="translate(207.2754,92.333)">
        <path
           d="m 0,0 -12.782,0 0,154.832 -23.279,23.272 -27.531,0 0,12.782 32.825,0 L 0,160.128 0,0 Z"
           style="fill:#ffffff;fill-opacity:1;fill-rule:nonzero;stroke:none"
           id="path4337" />
      </g>
      <g
         id="g4339"
         transform="translate(106.5884,207.5332)">
        <path
           d="m 0,0 c -1.949,0 -3.535,-1.585 -3.535,-3.533 0,-1.948 1.586,-3.533 3.535,-3.533 1.947,0 3.532,1.585 3.532,3.533 C 3.532,-1.585 1.947,0 0,0 m 0,-19.849 c -8.997,0 -16.317,7.32 -16.317,16.316 0,8.996 7.32,16.315 16.317,16.315 8.996,0 16.314,-7.319 16.314,-16.315 0,-8.996 -7.318,-16.316 -16.314,-16.316"
           style="fill:#ffffff;fill-opacity:1;fill-rule:nonzero;stroke:none"
           id="path4341" />
      </g>
      <g
         id="g4343"
         transform="translate(255.6924,295.7139)">
        <path
           d="m 0,0 c -1.947,0 -3.53,-1.583 -3.53,-3.529 0,-1.946 1.583,-3.529 3.53,-3.529 1.949,0 3.534,1.583 3.534,3.529 C 3.534,-1.583 1.949,0 0,0 m 0,-19.84 c -8.995,0 -16.313,7.317 -16.313,16.311 0,8.994 7.318,16.311 16.313,16.311 8.997,0 16.317,-7.317 16.317,-16.311 0,-8.994 -7.32,-16.311 -16.317,-16.311"
           style="fill:#ffffff;fill-opacity:1;fill-rule:nonzero;stroke:none"
           id="path4345" />
      </g>
      <g
         id="g4347"
         transform="translate(185.9233,94.5635)">
        <path
           d="m 0,0 -12.782,0 0,124.117 -14.037,14.037 -105.614,0 0,12.782 110.909,0 L 0,129.412 0,0 Z"
           style="fill:#ffffff;fill-opacity:1;fill-rule:nonzero;stroke:none"
           id="path4349" />
      </g>
      <g
         id="g4351"
         transform="translate(133.8691,280.3604)">
        <path
           d="m 0,0 c -1.949,0 -3.534,-1.586 -3.534,-3.536 0,-1.945 1.585,-3.528 3.534,-3.528 1.949,0 3.535,1.583 3.535,3.528 C 3.535,-1.586 1.949,0 0,0 m 0,-19.846 c -8.997,0 -16.316,7.317 -16.316,16.31 0,8.998 7.319,16.318 16.316,16.318 8.997,0 16.317,-7.32 16.317,-16.318 0,-8.993 -7.32,-16.31 -16.317,-16.31"
           style="fill:#ffffff;fill-opacity:1;fill-rule:nonzero;stroke:none"
           id="path4353" />
      </g>
      <g
         id="g4355"
         transform="translate(164.5576,96.3164)">
        <path
           d="m 0,0 -12.782,0 0,90.552 -11.164,10.74 -25.974,0 0,12.782 31.125,0 L 0,95.991 0,0 Z"
           style="fill:#ffffff;fill-opacity:1;fill-rule:nonzero;stroke:none"
           id="path4357" />
      </g>
      <g
         id="g4359"
         transform="translate(228.4746,99.8184)">
        <path
           d="m 0,0 -12.783,0 0,121.008 26.846,26.842 43.889,0 0,-12.782 -38.595,0 L 0,115.713 0,0 Z"
           style="fill:#ffffff;fill-opacity:1;fill-rule:nonzero;stroke:none"
           id="path4361" />
      </g>
      <g
         id="g4363"
         transform="translate(296.3516,244.8066)">
        <path
           d="m 0,0 c -1.948,0 -3.533,-1.584 -3.533,-3.531 0,-1.948 1.585,-3.533 3.533,-3.533 1.948,0 3.532,1.585 3.532,3.533 C 3.532,-1.584 1.948,0 0,0 m 0,-19.846 c -8.997,0 -16.316,7.319 -16.316,16.315 0,8.995 7.319,16.313 16.316,16.313 8.996,0 16.315,-7.318 16.315,-16.313 0,-8.996 -7.319,-16.315 -16.315,-16.315"
           style="fill:#ffffff;fill-opacity:1;fill-rule:nonzero;stroke:none"
           id="path4365" />
      </g>
      <path
         d="m 19.303,4.167 -14.81,0 0,65.242 14.81,0 0,-65.242 z"
         style="fill:#ffffff;fill-opacity:1;fill-rule:nonzero;stroke:none"
         id="path4367" />
      <path
         d="m 4.981,4.655 13.833,0 0,64.266 -13.833,0 0,-64.266 z m 14.81,-0.976 -15.786,0 0,66.219 15.786,0 0,-66.219 z"
         style="fill:#ffffff;fill-opacity:1;fill-rule:nonzero;stroke:none"
         id="path4369" />
      <g
         id="g4371"
         transform="translate(70.8896,31.7549)">
        <path
           d="m 0,0 -24.004,0 0,-15.489 26.812,0 0,-12.099 -41.622,0 0,65.242 40.268,0 0,-12.097 -25.458,0 0,-13.558 L 0,11.999 0,0 Z"
           style="fill:#ffffff;fill-opacity:1;fill-rule:nonzero;stroke:none"
           id="path4373" />
      </g>
      <g
         id="g4375"
         transform="translate(32.5635,4.6553)">
        <path
           d="m 0,0 40.646,0 0,11.122 -26.812,0 0,16.466 24.004,0 0,11.022 -24.004,0 0,14.535 25.458,0 0,11.121 L 0,64.266 0,0 Z m 41.622,-0.977 -42.599,0 0,66.219 41.246,0 0,-13.074 -25.458,0 0,-12.581 24.003,0 0,-12.976 -24.003,0 0,-14.512 26.811,0 0,-13.076 z"
           style="fill:#ffffff;fill-opacity:1;fill-rule:nonzero;stroke:none"
           id="path4377" />
      </g>
      <g
         id="g4379"
         transform="translate(122.5742,31.7549)">
        <path
           d="m 0,0 -24.003,0 0,-15.489 26.812,0 0,-12.099 -41.622,0 0,65.242 40.264,0 0,-12.097 -25.454,0 0,-13.558 L 0,11.999 0,0 Z"
           style="fill:#ffffff;fill-opacity:1;fill-rule:nonzero;stroke:none"
           id="path4381" />
      </g>
      <g
         id="g4383"
         transform="translate(84.25,4.6553)">
        <path
           d="m 0,0 40.645,0 0,11.122 -26.812,0 0,16.466 24.003,0 0,11.022 -24.003,0 0,14.535 25.454,0 0,11.121 L 0,64.266 0,0 Z m 41.621,-0.977 -42.598,0 0,66.219 41.241,0 0,-13.074 -25.454,0 0,-12.581 24.003,0 0,-12.976 -24.003,0 0,-14.512 26.811,0 0,-13.076 z"
           style="fill:#ffffff;fill-opacity:1;fill-rule:nonzero;stroke:none"
           id="path4385" />
      </g>
      <g
         id="g4387"
         transform="translate(174.2578,31.7549)">
        <path
           d="m 0,0 -24.005,0 0,-15.489 26.813,0 0,-12.099 -41.621,0 0,65.242 40.266,0 0,-12.097 -25.458,0 0,-13.558 L 0,11.999 0,0 Z"
           style="fill:#ffffff;fill-opacity:1;fill-rule:nonzero;stroke:none"
           id="path4389" />
      </g>
      <g
         id="g4391"
         transform="translate(135.9326,4.6553)">
        <path
           d="m 0,0 40.645,0 0,11.122 -26.813,0 0,16.466 24.005,0 0,11.022 -24.005,0 0,14.535 25.458,0 0,11.121 L 0,64.266 0,0 Z m 41.621,-0.977 -42.598,0 0,66.219 41.244,0 0,-13.074 -25.458,0 0,-12.581 24.004,0 0,-12.976 -24.004,0 0,-14.512 26.812,0 0,-13.076 z"
           style="fill:#ffffff;fill-opacity:1;fill-rule:nonzero;stroke:none"
           id="path4393" />
      </g>
      <g
         id="g4395"
         transform="translate(221.293,14.6191)">
        <path
           d="m 0,0 c 1.451,-0.189 3.195,-0.189 5.711,-0.189 6.681,0 12.581,2.514 12.581,9.387 0,6.583 -5.9,9.197 -13.259,9.197 L 0,18.395 0,0 Z m 0,28.946 4.841,0 c 7.743,0 11.905,3.193 11.905,8.028 0,4.94 -3.775,7.551 -10.452,7.551 C 3.097,44.525 1.261,44.338 0,44.139 L 0,28.946 Z m -14.614,24.968 c 3.873,0.777 11.713,1.357 19.068,1.357 9.003,0 14.517,-0.872 19.261,-3.678 4.551,-2.417 7.842,-6.87 7.842,-12.777 0,-5.809 -3.389,-11.228 -10.748,-13.939 l 0,-0.19 c 7.457,-2.033 12.972,-7.65 12.972,-16.068 0,-5.907 -2.711,-10.554 -6.776,-13.846 -4.741,-3.771 -12.681,-5.903 -25.648,-5.903 -7.263,0 -12.68,0.487 -15.971,0.968 l 0,64.076 z"
           style="fill:#ffffff;fill-opacity:1;fill-rule:nonzero;stroke:none"
           id="path4397" />
      </g>
      <g
         id="g4399"
         transform="translate(221.7812,44.0537)">
        <path
           d="m 0,0 4.353,0 c 7.149,0 11.417,2.818 11.417,7.539 0,5.838 -5.418,7.064 -9.964,7.064 -2.998,0 -4.729,-0.167 -5.806,-0.32 L 0,0 Z m 4.353,-0.977 -5.33,0 0,16.098 0.413,0.066 c 1.066,0.167 2.887,0.392 6.37,0.392 7.054,0 10.94,-2.855 10.94,-8.04 0,-5.332 -4.633,-8.516 -12.393,-8.516 M 0,-29 c 1.347,-0.136 3.007,-0.136 5.223,-0.136 3.635,0 12.092,0.867 12.092,8.9 0,7.577 -8.001,8.708 -12.77,8.708 L 0,-11.528 0,-29 Z m 5.223,-1.112 c -2.492,0 -4.291,0 -5.775,0.193 l -0.425,0.056 0,19.311 5.522,0 c 8.736,0 13.747,-3.53 13.747,-9.684 0,-6.277 -4.764,-9.876 -13.069,-9.876 m -19.837,-9.061 c 2.621,-0.363 7.816,-0.903 15.483,-0.903 12.15,0 20.44,1.896 25.344,5.797 4.311,3.491 6.592,8.148 6.592,13.464 0,7.613 -4.715,13.444 -12.613,15.597 l -0.36,0.098 0,0.903 0.319,0.117 c 6.628,2.442 10.429,7.356 10.429,13.482 0,5.286 -2.764,9.786 -7.582,12.346 -4.468,2.641 -9.621,3.62 -19.032,3.62 -6.987,0 -14.521,-0.519 -18.58,-1.272 l 0,-63.249 z m 15.483,-1.88 c -8.16,0 -13.554,0.61 -16.042,0.973 l -0.418,0.061 0,64.898 0.393,0.079 c 4.007,0.805 11.887,1.366 19.164,1.366 9.606,0 14.893,-1.015 19.509,-3.746 5.129,-2.724 8.082,-7.537 8.082,-13.196 0,-6.227 -3.635,-11.271 -10.021,-13.983 7.692,-2.503 12.245,-8.492 12.245,-16.214 0,-5.621 -2.406,-10.539 -6.957,-14.225 -5.087,-4.047 -13.576,-6.013 -25.955,-6.013"
           style="fill:#ffffff;fill-opacity:1;fill-rule:nonzero;stroke:none"
           id="path4401" />
      </g>
      <g
         id="g4403"
         transform="translate(313.0479,6.0078)">
        <path
           d="m 0,0 c -2.709,-1.355 -8.806,-2.809 -16.745,-2.809 -22.552,0 -34.166,14.035 -34.166,32.621 0,22.261 15.872,34.652 35.617,34.652 7.648,0 13.452,-1.549 16.066,-2.905 L -2.229,49.847 c -2.999,1.257 -7.159,2.424 -12.384,2.424 -11.715,0 -20.815,-7.074 -20.815,-21.587 0,-13.063 7.746,-21.295 20.909,-21.295 4.453,0 9.389,0.967 12.29,2.127 L 0,0 Z"
           style="fill:#ffffff;fill-opacity:1;fill-rule:nonzero;stroke:none"
           id="path4405" />
      </g>
      <g
         id="g4407"
         transform="translate(297.7539,69.9834)">
        <path
           d="m 0,0 c -21.012,0 -35.129,-13.729 -35.129,-34.163 0,-19.82 12.904,-32.133 33.678,-32.133 7.316,0 13.305,1.279 16.194,2.598 l -2.047,10.576 c -2.777,-1.003 -7.359,-1.953 -11.921,-1.953 -13.198,0 -21.397,8.346 -21.397,21.783 0,13.616 8.163,22.075 21.303,22.075 4.247,0 8.298,-0.756 12.05,-2.249 l 2.764,10.787 C 12.813,-1.405 7.308,0 0,0 m -1.451,-67.272 c -21.375,0 -34.654,12.686 -34.654,33.109 0,21.017 14.509,35.14 36.105,35.14 7.813,0 13.659,-1.595 16.291,-2.96 l 0.345,-0.179 -3.238,-12.636 -0.521,0.219 c -3.778,1.583 -7.881,2.386 -12.196,2.386 -12.538,0 -20.327,-8.084 -20.327,-21.099 0,-13.028 7.634,-20.807 20.421,-20.807 4.047,0 9.026,0.861 12.11,2.092 l 0.548,0.219 2.411,-12.458 -0.331,-0.166 c -2.638,-1.319 -8.662,-2.86 -16.964,-2.86"
           style="fill:#ffffff;fill-opacity:1;fill-rule:nonzero;stroke:none"
           id="path4409" />
      </g>
      <path
         d="m 337.531,4.167 -14.809,0 0,65.242 14.809,0 0,-65.242 z"
         style="fill:#ffffff;fill-opacity:1;fill-rule:nonzero;stroke:none"
         id="path4411" />
      <path
         d="m 323.211,4.655 13.832,0 0,64.266 -13.832,0 0,-64.266 z m 14.809,-0.976 -15.785,0 0,66.219 15.785,0 0,-66.219 z"
         style="fill:#ffffff;fill-opacity:1;fill-rule:nonzero;stroke:none"
         id="path4413" />
      <g
         id="g4415"
         transform="translate(362.8906,57.0166)">
        <path
           d="m 0,0 -17.52,0 0,12.393 50.136,0 0,-12.393 -17.807,0 0,-52.85 L 0,-52.85 0,0 Z"
           style="fill:#ffffff;fill-opacity:1;fill-rule:nonzero;stroke:none"
           id="path4417" />
      </g>
      <g
         id="g4419"
         transform="translate(363.3789,4.6553)">
        <path
           d="m 0,0 13.832,0 0,52.85 17.808,0 0,11.416 -49.16,0 0,-11.416 L 0,52.85 0,0 Z m 14.809,-0.977 -15.786,0 0,52.85 -17.519,0 0,13.369 51.112,0 0,-13.369 -17.807,0 0,-52.85 z"
           style="fill:#ffffff;fill-opacity:1;fill-rule:nonzero;stroke:none"
           id="path4421" />
      </g>
      <g
         id="g4423"
         transform="translate(329.4668,88.333)">
        <path
           d="m 0,0 -0.551,8.799 c -0.054,1.154 -0.054,2.584 -0.109,4.179 l -0.165,0 C -1.21,11.658 -1.65,9.898 -2.09,8.523 l -2.695,-8.303 -3.079,0 -2.695,8.523 c -0.275,1.155 -0.715,2.915 -1.045,4.235 l -0.165,0 c 0,-1.374 -0.055,-2.805 -0.11,-4.179 L -12.429,0 l -2.859,0 1.1,14.958 4.454,0 2.585,-7.314 C -6.819,6.488 -6.545,5.389 -6.16,3.85 l 0.056,0 c 0.384,1.374 0.714,2.638 1.044,3.739 l 2.584,7.369 4.29,0 L 2.969,0 0,0 Z m -16.168,14.958 0,-2.475 -4.785,0 0,-12.483 -2.969,0 0,12.483 -4.785,0 0,2.475 12.539,0 z"
           style="fill:#ffffff;fill-opacity:1;fill-rule:nonzero;stroke:none"
           id="path4425" />
      </g>
      <g
         id="g4427"
         transform="translate(305.7949,88.583)">
        <path
           d="m 0,0 2.469,0 0,12.483 4.785,0 0,1.975 -12.039,0 0,-1.975 4.785,0 L 0,0 Z m 2.969,-0.5 -3.469,0 0,12.483 -4.785,0 0,2.975 13.039,0 0,-2.975 -4.785,0 0,-12.483 z m 20.937,0.5 2.464,0 -1.115,14.458 -3.881,0 -2.525,-7.202 C 18.64,6.56 18.428,5.784 18.2,4.955 18.075,4.496 17.945,4.021 17.809,3.532 l -0.052,-0.182 -0.385,0 -0.102,0.189 c -0.39,1.559 -0.663,2.648 -0.988,3.786 l -2.521,7.133 -4.045,0 L 8.653,0 l 2.356,0 0.534,8.564 c 0.052,1.292 0.11,2.762 0.11,4.164 l 0,0.25 0.611,0 0.139,-0.562 c 0.317,-1.265 0.703,-2.814 0.953,-3.865 l 2.635,-8.331 2.714,0 2.64,8.131 c 0.268,0.842 0.537,1.827 0.798,2.78 0.16,0.589 0.316,1.16 0.463,1.667 l 0.053,0.18 0.594,0 0.009,-0.242 c 0.025,-0.738 0.039,-1.44 0.051,-2.096 0.015,-0.761 0.029,-1.46 0.058,-2.079 L 23.906,0 Z m 3.005,-0.5 -3.474,0 -0.565,9.033 c -0.03,0.627 -0.044,1.331 -0.059,2.097 -0.005,0.318 -0.012,0.646 -0.02,0.984 C 22.737,11.413 22.682,11.207 22.625,10.999 22.363,10.041 22.093,9.051 21.82,8.197 l -2.752,-8.477 -3.444,0 -2.749,8.698 C 12.677,9.246 12.4,10.363 12.139,11.413 12.118,10.425 12.079,9.44 12.043,8.539 l -0.564,-9.039 -3.365,0 0.021,0.269 1.116,15.189 4.863,0 2.644,-7.481 c 0.274,-0.956 0.508,-1.867 0.793,-3.002 0.056,0.207 0.112,0.411 0.167,0.612 0.228,0.833 0.441,1.612 0.655,2.324 l 2.646,7.547 4.699,0 1.193,-15.458 z"
           style="fill:#ffffff;fill-opacity:1;fill-rule:nonzero;stroke:none"
           id="path4429" />
      </g>
    </g>
  </g>
  <g
     style="display:inline"
     transform="translate(0,-62.3622)"
     id="layer1">
    <flowRoot
       style="font-style:normal;font-weight:normal;font-size:40px;line-height:125%;font-family:sans-serif;letter-spacing:0px;word-spacing:0px;fill:#000000;fill-opacity:1;stroke:none;stroke-width:1px;stroke-linecap:butt;stroke-linejoin:miter;stroke-opacity:1"
       id="flowRoot4140"
       xml:space="preserve"><flowRegion
         id="flowRegion4142"><rect
           y="78.571426"
           x="-177.14285"
           height="234.28572"
           width="240"
           id="rect4144" /></flowRegion><flowPara
         id="flowPara4146" /></flowRoot>    <flowRoot
       style="font-style:normal;font-weight:normal;font-size:40px;line-height:125%;font-family:sans-serif;letter-spacing:0px;word-spacing:0px;fill:#000000;fill-opacity:1;stroke:none;stroke-width:1px;stroke-linecap:butt;stroke-linejoin:miter;stroke-opacity:1"
       id="flowRoot4148"
       xml:space="preserve"><flowRegion
         id="flowRegion4150"><rect
           y="-18.571428"
           x="-20"
           height="217.14285"
           width="365.71429"
           id="rect4152" /></flowRegion><flowPara
         id="flowPara4154" /></flowRoot>    <flowRoot
       style="font-style:normal;font-weight:normal;font-size:40px;line-height:125%;font-family:sans-serif;letter-spacing:0px;word-spacing:0px;fill:#000000;fill-opacity:1;stroke:none;stroke-width:1px;stroke-linecap:butt;stroke-linejoin:miter;stroke-opacity:1"
       id="flowRoot4156"
       xml:space="preserve"><flowRegion
         id="flowRegion4158"><rect
           y="-38.57143"
           x="-65.714287"
           height="545.71429"
           width="1440"
           id="rect4160" /></flowRegion><flowPara
         id="flowPara4162" /></flowRoot>    <text
       transform="scale(0.93444347,1.0701557)"
       id="text3336"
       y="186.1386"
       x="67.409462"
       style="font-style:normal;font-variant:normal;font-weight:bold;font-stretch:normal;font-size:96.08956909px;line-height:125%;font-family:Hussar;-inkscape-font-specification:'Hussar, Bold';text-align:start;letter-spacing:0px;word-spacing:0px;writing-mode:lr-tb;text-anchor:start;fill:#ffffff;fill-opacity:1;stroke:none;stroke-width:1px;stroke-linecap:butt;stroke-linejoin:miter;stroke-opacity:1"
       xml:space="preserve"><tspan
         id="tspan4513"
         y="186.1386"
         x="67.409462">BCIT SAILBOT</tspan></text>
    <flowRoot
       style="font-style:normal;font-weight:normal;font-size:40px;line-height:125%;font-family:sans-serif;letter-spacing:0px;word-spacing:0px;fill:#000000;fill-opacity:1;stroke:none;stroke-width:1px;stroke-linecap:butt;stroke-linejoin:miter;stroke-opacity:1"
       id="flowRoot4223"
       xml:space="preserve"><flowRegion
         id="flowRegion4225"><rect
           y="1261.4286"
           x="262.85715"
           height="45.714287"
           width="37.142857"
           id="rect4227" /></flowRegion><flowPara
         id="flowPara4229" /></flowRoot>    <path
       style="fill:#000000;fill-opacity:0;fill-rule:nonzero;stroke:none;stroke-linecap:square;stroke-miterlimit:10"
       d="m -323.48478,-225.38612 960,0 0,720 -960,0 z"
       id="path4477" />
    <g
       transform="matrix(0.70799844,0,0,0.70799844,33.280254,372.61145)"
       id="g4271">
      <text
         xml:space="preserve"
         style="font-style:normal;font-variant:normal;font-weight:600;font-stretch:normal;font-size:78.75875092px;line-height:125%;font-family:OptimusPrincepsSemiBold;-inkscape-font-specification:'OptimusPrincepsSemiBold, Semi-Bold';text-align:start;letter-spacing:0px;word-spacing:0px;writing-mode:lr-tb;text-anchor:start;fill:#ffffff;fill-opacity:1;stroke:none;stroke-width:1px;stroke-linecap:butt;stroke-linejoin:miter;stroke-opacity:1"
         x="471.86057"
         y="-89.918861"
         id="text4398"><tspan
           id="tspan4400"
           x="471.86057"
           y="-89.918861">B</tspan></text>
      <text
         xml:space="preserve"
         style="font-style:normal;font-variant:normal;font-weight:600;font-stretch:normal;font-size:78.75875092px;line-height:125%;font-family:OptimusPrincepsSemiBold;-inkscape-font-specification:'OptimusPrincepsSemiBold, Semi-Bold';text-align:start;letter-spacing:0px;word-spacing:0px;writing-mode:lr-tb;text-anchor:start;fill:#ffffff;fill-opacity:1;stroke:none;stroke-width:1px;stroke-linecap:butt;stroke-linejoin:miter;stroke-opacity:1"
         x="218.90991"
         y="-833.81702"
         id="text4398-3"
         transform="matrix(0,1,-1,0,0,0)"><tspan
           id="tspan4400-7"
           x="218.90991"
           y="-833.81702">C</tspan><tspan
           x="218.90991"
           y="-735.36859"
           id="tspan4436" /></text>
      <text
         xml:space="preserve"
         style="font-style:normal;font-variant:normal;font-weight:600;font-stretch:normal;font-size:78.75875092px;line-height:125%;font-family:OptimusPrincepsSemiBold;-inkscape-font-specification:'OptimusPrincepsSemiBold, Semi-Bold';text-align:start;letter-spacing:0px;word-spacing:0px;writing-mode:lr-tb;text-anchor:start;fill:#ffffff;fill-opacity:1;stroke:none;stroke-width:1px;stroke-linecap:butt;stroke-linejoin:miter;stroke-opacity:1"
         x="-505.49896"
         y="-588.54675"
         id="text4398-6"
         transform="scale(-1,-1)"><tspan
           id="tspan4400-4"
           x="-505.49896"
           y="-588.54675">I</tspan><tspan
           x="-505.49896"
           y="-490.09833"
           id="tspan4438" /></text>
      <text
         xml:space="preserve"
         style="font-style:normal;font-variant:normal;font-weight:600;font-stretch:normal;font-size:78.75875092px;line-height:125%;font-family:OptimusPrincepsSemiBold;-inkscape-font-specification:'OptimusPrincepsSemiBold, Semi-Bold';text-align:start;letter-spacing:0px;word-spacing:0px;writing-mode:lr-tb;text-anchor:start;fill:#ffffff;fill-opacity:1;stroke:none;stroke-width:1px;stroke-linecap:butt;stroke-linejoin:miter;stroke-opacity:1"
         x="-276.76981"
         y="154.9511"
         id="text4398-62"
         transform="matrix(0,-1,1,0,0,0)"><tspan
           id="tspan4400-5"
           x="-276.76981"
           y="154.9511">T</tspan></text>
      <g
         id="g5792"
         transform="matrix(1.7933603,0,0,1.7933601,-93.209869,-738.59604)">
        <g
           transform="matrix(1.0000054,0,0,0.99999998,-90.483508,366.63404)"
           id="g4846">
          <path
             id="path4485"
             d="m 443.45035,159.01399 152.91506,25.48582"
             style="fill:none;fill-rule:nonzero;stroke:#ffffff;stroke-width:3.1500001;stroke-linecap:round;stroke-linejoin:round;stroke-miterlimit:10;stroke-dasharray:none;stroke-opacity:1" />
          <path
             id="path4493"
             d="M 443.45035,209.98563 417.9645,362.90057"
             style="fill:none;fill-rule:nonzero;stroke:#ffffff;stroke-width:3.15387177;stroke-linecap:round;stroke-linejoin:round;stroke-miterlimit:10;stroke-dasharray:none;stroke-opacity:1" />
          <path
             id="path4497"
             d="m 392.47866,209.98563 25.48584,-25.48582 0,178.40076 z"
             style="fill:#ffffff;fill-opacity:1;fill-rule:nonzero;stroke:#ffffff;stroke-width:3.15387177;stroke-linecap:round;stroke-linejoin:round;stroke-miterlimit:10;stroke-dasharray:none;stroke-opacity:1" />
          <path
             id="path4501"
             d="M 392.47866,209.98563 239.56359,184.49981"
             style="fill:none;fill-rule:nonzero;stroke:#ffffff;stroke-width:3.15387177;stroke-linecap:round;stroke-linejoin:round;stroke-miterlimit:10;stroke-dasharray:none;stroke-opacity:1" />
          <path
             id="path4505"
             d="m 392.47866,159.01399 -152.91507,25.48582 178.40091,0 z"
             style="fill:#ffffff;fill-opacity:1;fill-rule:nonzero;stroke:#ffffff;stroke-width:3.15387177;stroke-linecap:round;stroke-linejoin:round;stroke-miterlimit:10;stroke-dasharray:none;stroke-opacity:1" />
          <path
             id="path4509"
             d="M 392.47866,159.01399 417.9645,6.09905"
             style="fill:none;fill-rule:nonzero;stroke:#ffffff;stroke-width:3.15387177;stroke-linecap:round;stroke-linejoin:round;stroke-miterlimit:10;stroke-dasharray:none;stroke-opacity:1" />
          <path
             id="path4481"
             d="m 417.9645,6.09905 25.48585,152.91494 -25.48585,25.48582 0,-178.40076"
             style="fill:#ffffff;fill-opacity:1;fill-rule:nonzero;stroke:#ffffff;stroke-width:3.15387177;stroke-linecap:round;stroke-linejoin:round;stroke-miterlimit:10;stroke-dasharray:none;stroke-opacity:1" />
          <path
             id="path4537"
             d="m 443.45035,209.98563 152.91506,-25.48582 -178.40091,0 z"
             style="fill:#ffffff;fill-opacity:1;fill-rule:nonzero;stroke:#ffffff;stroke-width:3.15387177;stroke-linecap:round;stroke-linejoin:round;stroke-miterlimit:10;stroke-dasharray:none;stroke-opacity:1" />
        </g>
        <path
           d="m 335.35668,417.84638 a 133.51968,133.51968 0 0 1 125.399,125.18146"
           id="path4819"
           style="fill:none;fill-opacity:1;stroke:#ffffff;stroke-width:2.9606328;stroke-linecap:butt;stroke-miterlimit:10;stroke-dasharray:none;stroke-opacity:1" />
        <path
           d="M 194.19703,543.22475 A 133.51968,133.51968 0 0 1 319.43025,417.857"
           id="path4819-0"
           style="fill:none;fill-opacity:1;stroke:#ffffff;stroke-width:2.96099997;stroke-linecap:butt;stroke-miterlimit:10;stroke-dasharray:none;stroke-opacity:1" />
        <path
           d="M 319.47904,684.41328 A 133.51968,133.51968 0 0 1 194.17418,558.64758"
           id="path4819-7"
           style="fill:none;fill-opacity:1;stroke:#ffffff;stroke-width:2.9606328;stroke-linecap:butt;stroke-miterlimit:10;stroke-dasharray:none;stroke-opacity:1" />
        <path
           d="M 460.78721,558.7032 A 133.51968,133.51968 0 0 1 335.27426,684.42579"
           id="path4819-3"
           style="fill:none;fill-opacity:1;stroke:#ffffff;stroke-width:2.9606328;stroke-linecap:butt;stroke-miterlimit:10;stroke-dasharray:none;stroke-opacity:1" />
      </g>
    </g>
    <text
       transform="scale(0.93444347,1.0701557)"
       id="text3336-1"
       y="874.81354"
       x="415.6134"
       style="font-style:normal;font-variant:normal;font-weight:bold;font-stretch:normal;font-size:48.04478455px;line-height:125%;font-family:Hussar;-inkscape-font-specification:'Hussar, Bold';text-align:start;letter-spacing:0px;word-spacing:0px;writing-mode:lr-tb;text-anchor:start;display:inline;fill:#ffffff;fill-opacity:1;stroke:none;stroke-width:1px;stroke-linecap:butt;stroke-linejoin:miter;stroke-opacity:1"
       xml:space="preserve"><tspan
         style="text-align:center;text-anchor:middle"
         id="tspan4513-1"
         y="874.81354"
         x="415.6134">Sponsorship Package</tspan><tspan
         style="text-align:center;text-anchor:middle"
         id="tspan4364"
         y="934.86951"
         x="415.6134">2016-2017</tspan></text>
  </g>
</svg>
